<?xml version="1.0" encoding="UTF-8"?>
<svg id="Layer_1" xmlns="http://www.w3.org/2000/svg" version="1.1" xmlns:xlink="http://www.w3.org/1999/xlink" viewBox="0 0 1080 1080">
  <!-- Generator: Adobe Illustrator 29.1.0, SVG Export Plug-In . SVG Version: 2.1.0 Build 142)  -->
  <defs>
    <style>
      .st0 {
        font-family: Montserrat-Regular, Montserrat;
        font-size: 31.31px;
        letter-spacing: .01em;
      }

      .st0, .st1 {
        display: none;
      }

      .st2 {
        fill: #fff;
      }

      .st3 {
        fill: none;
      }

      .st4 {
        opacity: .06;
      }

      .st5 {
        clip-path: url(#clippath);
      }
    </style>
    <clipPath id="clippath">
      <rect class="st3" width="1080" height="1080"/>
    </clipPath>
  </defs>
  <rect class="st1" width="1080" height="1080"/>
  <g class="st1">
    <g class="st5">
      <g class="st4">
        <path class="st2" d="M1001.24,331.83c-18.73,5.57-38.57,8.56-59.1,8.56-73.03,0-137.31-37.94-174.41-95.05,0,.05,0,.09.02.13-.5-.77-.96-1.58-1.45-2.36-1.29-2.05-2.59-4.09-3.81-6.18-2.01-3.42-3.94-6.88-5.76-10.41-1.06-2.18-2.18-4.37-3.19-6.6-2.13-4.42-3.99-8.94-5.75-13.52-.85-2.34-1.7-4.63-2.5-6.97-.05-.16-.11-.27-.16-.43-.75-2.18-1.44-4.42-2.13-6.65-2.18-7.13-3.94-14.43-5.32-21.83-.91-4.9-1.65-9.9-2.24-14.91v-.21c-.59-5.06-.96-10.11-1.12-15.28-.11-2.55-.16-5.16-.16-7.77,0-114.67,93.32-207.99,207.99-207.99V17.43c-4.05-.21-8.36-.11-12.83.43,4.74-.27,8.36-.37,10.49-.37-62.28,1.22-112.54,52.33-112.54,114.88s51.53,114.93,114.88,114.93c21.61,0,41.83-5.99,59.11-16.39v100.94Z"/>
        <path class="st2" d="M1150.17,132.36c0,2.18-.05,4.37-.11,6.55v.43c0,.16,0,.37-.05.53v.27c0,.75-.05,1.49-.05,2.24-.05.75-.11,1.49-.16,2.24,0,.59-.05,1.12-.11,1.7-.05,1.22-.16,2.45-.27,3.62-.05.74-.11,1.49-.21,2.18-.16,1.7-.32,3.41-.53,5.11-.11.9-.21,1.81-.32,2.71-.16,1.01-.27,1.92-.43,2.88-.16,1.01-.32,2.08-.48,3.09-.27,1.81-.59,3.57-.96,5.32-.11.69-.21,1.44-.43,2.13,0,.32-.05.59-.16.9-.21,1.06-.43,2.18-.69,3.25-.43,2.08-.96,4.21-1.49,6.28-.59,2.45-1.28,4.9-1.97,7.35-.85,2.72-1.7,5.43-2.66,8.09-.11.43-.27.85-.43,1.33-.8,2.4-1.65,4.68-2.55,7.03-.16.32-.27.64-.37,1.01-.64,1.54-1.28,3.14-1.97,4.68-.37.96-.8,1.92-1.28,2.87-.21.59-.48,1.17-.75,1.76-.96,2.08-1.92,4.15-2.93,6.23-1.06,2.18-2.18,4.31-3.35,6.44-1.28,2.45-2.66,4.84-4.05,7.24-1.44,2.34-2.87,4.74-4.37,7.03-1.49,2.34-3.03,4.63-4.63,6.87-1.6,2.24-3.25,4.47-4.9,6.65-1.6,2.13-3.25,4.21-4.9,6.23-.11.11-.16.16-.21.21-1.76,2.13-3.57,4.21-5.43,6.28-1.81,2.02-3.67,4.05-5.59,6.02-1.92,1.92-3.83,3.83-5.8,5.8,0,0-.05-.05-.05,0-1.97,1.86-4.05,3.73-6.07,5.54-2.08,1.81-4.15,3.62-6.28,5.32-2.58,2.1-5.22,4.12-7.9,6.1-.33.25-.68.48-1.01.73-2.43,1.77-4.89,3.49-7.4,5.15-.27.18-.53.35-.8.53-9.98,6.57-20.55,12.31-31.62,17.11v-110.9c9.44-9.7,17.19-21.06,22.75-33.59h-45.41v-93.05h148.36v46.53Z"/>
      </g>
    </g>
  </g>
  <g>
    <path d="M409.83,502.25l-33.62-19.41c-6.55-3.78-14.62-3.78-21.18,0l-33.62,19.41c-6.55,3.78-10.59,10.77-10.59,18.34v38.82c0,7.57,4.04,14.56,10.59,18.34l33.62,19.41c6.55,3.78,14.62,3.78,21.18,0l33.62-19.41c6.55-3.78,10.59-10.77,10.59-18.34v-38.82c0-7.57-4.04-14.56-10.59-18.34ZM377.81,581.14c-3.86,1.15-7.96,1.77-12.19,1.77-15.07,0-28.33-7.83-35.98-19.61,0,0,0,.02,0,.03-.1-.16-.2-.33-.3-.49-.27-.42-.53-.84-.79-1.28-.41-.71-.81-1.42-1.19-2.15-.22-.45-.45-.9-.66-1.36-.44-.91-.82-1.84-1.19-2.79-.18-.48-.35-.96-.52-1.44-.01-.03-.02-.05-.03-.09-.15-.45-.3-.91-.44-1.37-.45-1.47-.81-2.98-1.1-4.5-.19-1.01-.34-2.04-.46-3.07v-.04c-.12-1.04-.2-2.09-.23-3.15-.02-.53-.03-1.07-.03-1.6,0-23.65,19.25-42.9,42.9-42.9v19.2c-.83-.04-1.72-.02-2.65.09.98-.05,1.72-.08,2.16-.08-12.85.25-23.22,10.79-23.22,23.7s10.63,23.71,23.7,23.71c4.46,0,8.63-1.24,12.19-3.38v20.82ZM408.53,539.99c0,.45-.01.9-.02,1.35v.09s0,.08-.01.11v.05c0,.15-.01.31-.01.46-.01.15-.02.31-.03.46,0,.12-.01.23-.02.35-.01.25-.03.51-.05.75-.01.15-.02.31-.04.45-.03.35-.07.7-.11,1.05-.02.19-.04.37-.07.56-.03.21-.05.4-.09.59-.03.21-.07.43-.1.64-.05.37-.12.74-.2,1.1-.02.14-.04.3-.09.44,0,.07-.01.12-.03.19-.04.22-.09.45-.14.67-.09.43-.2.87-.31,1.3-.12.51-.26,1.01-.41,1.52-.18.56-.35,1.12-.55,1.67-.02.09-.05.18-.09.27-.16.49-.34.97-.53,1.45-.03.07-.05.13-.08.21-.13.32-.26.65-.41.97-.08.2-.16.4-.26.59-.04.12-.1.24-.15.36-.2.43-.4.86-.6,1.28-.22.45-.45.89-.69,1.33-.26.51-.55,1-.83,1.49-.3.48-.59.98-.9,1.45-.31.48-.63.96-.96,1.42-.33.46-.67.92-1.01,1.37-.33.44-.67.87-1.01,1.28-.02.02-.03.03-.04.04-.36.44-.74.87-1.12,1.3-.37.42-.76.83-1.15,1.24-.4.4-.79.79-1.2,1.2,0,0-.01-.01-.01,0-.41.38-.83.77-1.25,1.14-.43.37-.86.75-1.3,1.1-.53.43-1.08.85-1.63,1.26-.07.05-.14.1-.21.15-.5.37-1.01.72-1.53,1.06-.05.04-.11.07-.17.11-2.06,1.36-4.24,2.54-6.52,3.53v-22.88c1.95-2,3.55-4.34,4.69-6.93h-9.37v-19.2h30.61v9.6Z"/>
    <g>
      <g>
        <path d="M459.06,518.22h15.57v17.79c-2.07,1.52-4.6,2.74-7.59,3.68s-5.82,1.41-8.48,1.41c-3.88,0-7.39-.88-10.53-2.63-3.14-1.76-5.62-4.16-7.43-7.2-1.81-3.05-2.72-6.46-2.72-10.23s.93-7.12,2.77-10.17c1.84-3.05,4.39-5.44,7.62-7.18,3.23-1.74,6.82-2.61,10.78-2.61,2.88,0,5.64.52,8.29,1.55,2.64,1.04,4.96,2.44,6.95,4.21l-4.93,6.26c-1.44-1.37-3.05-2.44-4.82-3.21-1.77-.78-3.6-1.17-5.49-1.17-2.25,0-4.31.55-6.18,1.64-1.86,1.09-3.33,2.57-4.41,4.43-1.07,1.87-1.61,3.94-1.61,6.24s.55,4.39,1.64,6.29,2.57,3.4,4.43,4.49c1.86,1.09,3.92,1.64,6.18,1.64,1.14,0,2.38-.2,3.71-.58,1.33-.39,2.62-.91,3.88-1.58v-5.1h-7.65v-7.98Z"/>
        <path d="M493.81,511.84c1.66-.96,3.6-1.46,5.82-1.5v8.04c-.29-.04-.74-.06-1.33-.06-2.62,0-4.7.71-6.24,2.14s-2.3,3.32-2.3,5.68v14.35h-8.53v-29.82h8.53v5.38c1.03-1.84,2.38-3.25,4.05-4.21Z"/>
        <path d="M525.53,512.29c2.42,1.26,4.29,3.03,5.62,5.32,1.33,2.29,2,4.95,2,7.98s-.67,5.65-2,7.96-3.21,4.1-5.62,5.38c-2.42,1.27-5.2,1.91-8.34,1.91s-5.98-.64-8.4-1.91-4.29-3.07-5.62-5.38-2-4.96-2-7.96.67-5.69,2-7.98c1.33-2.29,3.2-4.06,5.62-5.32,2.42-1.26,5.22-1.88,8.4-1.88s5.92.63,8.34,1.88ZM511.79,519.77c-1.39,1.52-2.08,3.49-2.08,5.93s.69,4.42,2.08,5.93,3.19,2.27,5.4,2.27,3.96-.75,5.35-2.27,2.08-3.49,2.08-5.93-.69-4.41-2.08-5.93-3.17-2.27-5.35-2.27-4.02.76-5.4,2.27Z"/>
        <path d="M532.99,510.73l8.7-.06,6.65,21.34,6.43-21.34h8.37l6.54,21.34,6.54-21.34h8.42l-10.86,29.82h-8.54l-6.43-19.68-6.37,19.68h-8.54l-10.92-29.76Z"/>
        <path d="M606.31,538.83c-1.11.67-2.34,1.17-3.68,1.52-1.35.35-2.71.53-4.07.53-2.77,0-5.03-.8-6.76-2.38-1.74-1.59-2.61-3.86-2.61-6.82v-13.8h-4.16v-5.88h4.16v-8.2h8.48v8.2h8.09v5.93h-8.09v12.3c0,2.29.91,3.44,2.72,3.44,1.26,0,2.64-.37,4.16-1.11l1.77,6.26Z"/>
        <path d="M638.04,513.45c1.98,2.07,2.97,4.84,2.97,8.31v18.73h-8.53v-16.24c0-1.88-.53-3.37-1.58-4.46-1.05-1.09-2.49-1.64-4.3-1.64-2.1.04-3.78.77-5.01,2.19-1.24,1.42-1.86,3.24-1.86,5.46v14.69h-8.54v-41.12h8.54v16.57c2.07-3.66,5.5-5.52,10.31-5.6,3.36,0,6.03,1.03,8.01,3.11Z"/>
        <path d="M665.4,501.69c4.03,0,7.28,1.38,9.78,4.14,2.49,2.76,3.74,5.88,3.74,9.34s-1.24,6.69-3.74,9.4c-2.49,2.71-5.85,4.06-10.05,4.06h-10.32v11.86h-7.56v-38.83h18.2l-.05.03ZM664.78,521.84c1.98,0,3.58-.68,4.82-2,1.24-1.32,1.87-2.87,1.87-4.63s-.6-3.3-1.79-4.63c-1.19-1.33-2.68-2-4.49-2h-10.43v13.32h10.07l-.06-.05Z"/>
        <path d="M700.84,540.5v-3.49c-1,1.26-2.29,2.22-3.88,2.88-1.59.67-3.42,1-5.49,1-3.14,0-5.63-.86-7.48-2.58-1.85-1.72-2.77-3.96-2.77-6.73s.99-5,2.97-6.57c1.98-1.57,4.77-2.37,8.4-2.41h8.2v-.55c0-1.59-.53-2.82-1.58-3.69-1.05-.87-2.6-1.3-4.63-1.3-2.77,0-5.73.87-8.87,2.61l-2.66-5.88c2.36-1.18,4.58-2.05,6.65-2.6,2.07-.56,4.34-.83,6.81-.83,3.99,0,7.09.94,9.28,2.83,2.2,1.89,3.32,4.51,3.35,7.87l.06,19.45h-8.37ZM698.46,533.51c1.29-.85,2.07-1.92,2.33-3.21v-2.66h-6.71c-1.66,0-2.89.27-3.68.81-.8.53-1.19,1.39-1.19,2.57s.42,2.06,1.25,2.74c.83.68,1.97,1.03,3.41,1.03,1.77,0,3.31-.42,4.6-1.27Z"/>
        <path d="M734.48,538.83c-1.11.67-2.34,1.17-3.68,1.52-1.35.35-2.71.53-4.07.53-2.77,0-5.03-.8-6.76-2.38-1.74-1.59-2.61-3.86-2.61-6.82v-13.8h-4.16v-5.88h4.16v-8.2h8.48v8.2h8.09v5.93h-8.09v12.3c0,2.29.91,3.44,2.72,3.44,1.26,0,2.64-.37,4.16-1.11l1.77,6.26Z"/>
        <path d="M766.21,513.45c1.98,2.07,2.97,4.84,2.97,8.31v18.73h-8.53v-16.24c0-1.88-.53-3.37-1.58-4.46-1.05-1.09-2.49-1.64-4.3-1.64-2.1.04-3.78.77-5.01,2.19-1.24,1.42-1.86,3.24-1.86,5.46v14.69h-8.54v-41.12h8.54v16.57c2.07-3.66,5.5-5.52,10.31-5.6,3.36,0,6.03,1.03,8.01,3.11Z"/>
      </g>
      <g>
        <path d="M487.91,573.77c-1.57,0-2.97-.34-4.23-1.02-1.25-.68-2.24-1.62-2.96-2.83s-1.08-2.6-1.08-4.17.36-2.95,1.08-4.15,1.71-2.13,2.96-2.8c1.25-.67,2.66-1,4.23-1,1.46,0,2.78.3,3.95.91s2.1,1.5,2.79,2.69c.69,1.19,1.03,2.64,1.03,4.35s-.34,3.16-1.03,4.35c-.69,1.19-1.62,2.1-2.79,2.72-1.17.63-2.48.94-3.95.94ZM488.32,580.63c-1.5,0-2.94-.22-4.32-.66-1.38-.44-2.49-1.06-3.35-1.88l1.13-1.69c.77.69,1.73,1.24,2.87,1.64,1.14.41,2.34.61,3.62.61,2.09,0,3.62-.49,4.6-1.46s1.47-2.48,1.47-4.53v-4.1l.31-2.82-.22-2.82v-4.98h2.13v14.44c0,2.84-.69,4.92-2.08,6.25-1.39,1.33-3.44,1.99-6.15,1.99ZM488.13,571.8c1.21,0,2.29-.26,3.23-.77.94-.51,1.68-1.22,2.22-2.13s.81-1.96.81-3.15-.27-2.23-.81-3.13-1.28-1.6-2.22-2.11c-.94-.51-2.01-.77-3.23-.77s-2.26.26-3.21.77c-.95.51-1.69,1.22-2.22,2.11-.53.9-.8,1.94-.8,3.13s.27,2.24.8,3.15c.53.91,1.27,1.62,2.22,2.13.95.51,2.02.77,3.21.77Z"/>
        <path d="M503.06,574.39v-16.44h2.13v4.48l-.22-.78c.46-1.25,1.23-2.21,2.32-2.87,1.09-.66,2.43-.99,4.04-.99v2.16c-.08,0-.17,0-.25-.02-.08,0-.17-.02-.25-.02-1.73,0-3.09.53-4.07,1.58-.98,1.05-1.47,2.55-1.47,4.49v8.39h-2.22Z"/>
        <path d="M522.23,574.55c-1.59,0-3.01-.36-4.27-1.08-1.26-.72-2.26-1.71-2.99-2.97-.73-1.26-1.1-2.71-1.1-4.34s.36-3.1,1.1-4.35c.73-1.25,1.72-2.23,2.98-2.94s2.68-1.06,4.29-1.06,3.07.35,4.34,1.06,2.25,1.69,2.98,2.94,1.08,2.7,1.08,4.35-.36,3.07-1.08,4.34c-.72,1.26-1.72,2.25-2.99,2.97-1.27.72-2.71,1.08-4.32,1.08ZM522.23,572.58c1.19,0,2.24-.27,3.16-.8s1.64-1.28,2.18-2.25c.53-.97.8-2.09.8-3.37s-.27-2.42-.8-3.38c-.53-.96-1.26-1.71-2.18-2.24-.92-.53-1.96-.8-3.13-.8s-2.21.27-3.13.8c-.92.53-1.65,1.28-2.19,2.24-.54.96-.81,2.09-.81,3.38s.27,2.4.81,3.37c.54.97,1.27,1.72,2.19,2.25.92.53,1.95.8,3.1.8Z"/>
        <path d="M538.35,574.39l-6.2-16.44h2.13l5.64,15.25h-.97l5.79-15.25h1.91l5.73,15.25h-.97l5.73-15.25h2.04l-6.23,16.44h-2.1l-5.51-14.34h.66l-5.54,14.34h-2.1Z"/>
        <path d="M560.74,559.8v-1.85h10.18v1.85h-10.18ZM568.51,574.55c-1.54,0-2.73-.42-3.57-1.25s-1.25-2.01-1.25-3.54v-15.44h2.22v15.31c0,.96.25,1.7.74,2.22.49.52,1.19.78,2.11.78.98,0,1.79-.28,2.44-.84l.78,1.6c-.44.4-.97.69-1.58.88-.62.19-1.25.28-1.89.28Z"/>
        <path d="M584.73,557.8c1.34,0,2.51.26,3.52.77,1.01.51,1.8,1.29,2.38,2.33.57,1.04.86,2.36.86,3.95v9.55h-2.22v-9.33c0-1.73-.43-3.04-1.3-3.93-.87-.89-2.08-1.33-3.65-1.33-1.17,0-2.19.23-3.05.7s-1.53,1.15-2,2.04c-.47.89-.7,1.96-.7,3.21v8.64h-2.22v-23.23h2.22v11.3l-.44-.84c.52-1.19,1.36-2.12,2.5-2.8,1.15-.68,2.52-1.02,4.1-1.02Z"/>
        <path d="M597.82,580.47v-22.51h2.13v4.95l-.22,3.29.31,3.32v10.96h-2.22ZM606.3,574.55c-1.42,0-2.7-.33-3.85-.99-1.15-.66-2.06-1.61-2.74-2.85-.68-1.24-1.02-2.76-1.02-4.56s.33-3.31,1-4.56,1.58-2.19,2.72-2.83c1.15-.65,2.44-.97,3.88-.97,1.57,0,2.97.35,4.21,1.05,1.24.7,2.22,1.68,2.93,2.94.71,1.26,1.06,2.72,1.06,4.37s-.36,3.13-1.06,4.38c-.71,1.25-1.69,2.23-2.93,2.94-1.24.71-2.65,1.06-4.21,1.06ZM606.15,572.58c1.17,0,2.21-.27,3.13-.8.92-.53,1.65-1.28,2.19-2.25.54-.97.81-2.09.81-3.37s-.27-2.39-.81-3.35c-.54-.96-1.27-1.71-2.19-2.25-.92-.54-1.96-.81-3.13-.81s-2.22.27-3.15.81c-.93.54-1.66,1.29-2.19,2.25-.53.96-.8,2.08-.8,3.35s.27,2.4.8,3.37,1.26,1.72,2.19,2.25c.93.53,1.98.8,3.15.8Z"/>
        <path d="M623.9,574.55c-1.23,0-2.3-.2-3.21-.61s-1.6-.97-2.08-1.69c-.48-.72-.72-1.55-.72-2.49,0-.86.2-1.63.61-2.33s1.08-1.26,2-1.69c.93-.43,2.18-.64,3.74-.64h5.67v1.66h-5.6c-1.59,0-2.69.28-3.3.85-.62.56-.92,1.26-.92,2.1,0,.94.37,1.69,1.1,2.25s1.75.85,3.07.85,2.33-.29,3.24-.86,1.57-1.4,1.99-2.49l.5,1.53c-.42,1.09-1.14,1.95-2.18,2.6-1.03.65-2.33.97-3.9.97ZM629.57,574.39v-3.63l-.09-.6v-6.07c0-1.4-.39-2.47-1.17-3.23-.78-.75-1.95-1.13-3.49-1.13-1.06,0-2.08.18-3.04.53-.96.36-1.78.83-2.44,1.41l-1-1.66c.83-.71,1.84-1.26,3.01-1.64,1.17-.39,2.4-.58,3.69-.58,2.13,0,3.77.53,4.93,1.58,1.16,1.05,1.74,2.66,1.74,4.81v10.21h-2.13Z"/>
        <path d="M635.49,559.8v-1.85h10.18v1.85h-10.18ZM643.25,574.55c-1.54,0-2.74-.42-3.57-1.25-.83-.83-1.25-2.01-1.25-3.54v-15.44h2.22v15.31c0,.96.25,1.7.74,2.22s1.2.78,2.11.78c.98,0,1.79-.28,2.44-.84l.78,1.6c-.44.4-.97.69-1.58.88-.62.19-1.25.28-1.89.28Z"/>
        <path d="M659.47,557.8c1.33,0,2.51.26,3.52.77,1.01.51,1.81,1.29,2.38,2.33.57,1.04.86,2.36.86,3.95v9.55h-2.22v-9.33c0-1.73-.43-3.04-1.3-3.93-.87-.89-2.08-1.33-3.65-1.33-1.17,0-2.19.23-3.05.7-.87.47-1.54,1.15-2,2.04-.47.89-.7,1.96-.7,3.21v8.64h-2.22v-23.23h2.22v11.3l-.44-.84c.52-1.19,1.36-2.12,2.5-2.8s2.52-1.02,4.1-1.02Z"/>
        <path d="M672.78,574.55c-.46,0-.85-.17-1.17-.5-.32-.33-.49-.74-.49-1.22s.16-.91.49-1.22c.32-.31.71-.47,1.17-.47s.85.16,1.17.47c.32.31.49.72.49,1.22s-.16.89-.49,1.22c-.32.33-.71.5-1.17.5Z"/>
        <path d="M700.05,557.8c1.34,0,2.5.26,3.49.77.99.51,1.76,1.29,2.32,2.33.55,1.04.83,2.36.83,3.95v9.55h-2.22v-9.33c0-1.73-.41-3.04-1.24-3.93-.82-.89-1.99-1.33-3.49-1.33-1.13,0-2.1.23-2.93.7-.83.47-1.46,1.15-1.91,2.04-.45.89-.67,1.96-.67,3.21v8.64h-2.22v-9.33c0-1.73-.42-3.04-1.25-3.93-.84-.89-2-1.33-3.51-1.33-1.11,0-2.08.23-2.91.7s-1.48,1.15-1.93,2.04c-.45.89-.67,1.96-.67,3.21v8.64h-2.22v-16.44h2.13v4.45l-.34-.78c.5-1.19,1.31-2.12,2.43-2.8,1.12-.68,2.44-1.02,3.96-1.02,1.61,0,2.97.4,4.1,1.21,1.13.8,1.86,2.01,2.19,3.62l-.88-.34c.48-1.34,1.33-2.42,2.55-3.24,1.22-.82,2.69-1.24,4.4-1.24Z"/>
        <path d="M720.03,574.55c-1.71,0-3.21-.36-4.51-1.08-1.29-.72-2.31-1.71-3.04-2.97-.73-1.26-1.1-2.71-1.1-4.34s.35-3.07,1.05-4.32c.7-1.25,1.66-2.24,2.88-2.96,1.22-.72,2.59-1.08,4.12-1.08s2.92.35,4.12,1.05,2.14,1.68,2.83,2.94c.69,1.26,1.03,2.72,1.03,4.37,0,.1,0,.21-.02.33-.01.11-.02.23-.02.36h-14.31v-1.66h13.12l-.88.66c0-1.19-.26-2.25-.77-3.18s-1.21-1.65-2.08-2.18c-.88-.52-1.89-.78-3.04-.78s-2.14.26-3.04.78c-.9.52-1.6,1.25-2.1,2.19s-.75,2.01-.75,3.22v.34c0,1.25.28,2.35.83,3.3.55.95,1.33,1.69,2.32,2.22.99.53,2.12.8,3.4.8,1,0,1.94-.18,2.8-.53.87-.35,1.61-.9,2.24-1.63l1.25,1.44c-.73.88-1.64,1.54-2.74,2-1.1.46-2.3.69-3.62.69Z"/>
      </g>
    </g>
  </g>
  <text class="st0" transform="translate(473.89 459.43)"><tspan x="0" y="0">growthpath.me</tspan></text>
</svg>